# xmcd CD database file
#
# Track frame offsets:
#	150
#	18767
#	35794
#
# Disc length: 702 seconds
#
# Revision: 2
# Processed by: cddbd v1.5.1PL0 Copyright (c) Steve Scherf et al.
# Submitted via: CDex 1.51
#
DISCID=1b02bc03
DTITLE=東方神起 - HUG
DYEAR=2004
DGENRE=
TTITLE0=HUG [International Ver.]
TTITLE1=HUG [International Ver.]:Radio Edit
TTITLE2=HUG [International Ver.]:Inst.
EXTD=CD Single YEAR: 2004/11/25
EXTT0=
EXTT1=
EXTT2=
PLAYORDER=
